Simulation
nRows=42
nColumns=15
endheader
time  TH_x TH_y TH_z SC_y  SC_z  SC_x  AC_y  AC_z  AC_x  GH_y  GH_z  GH_yy  EL_x  PS_y
0.0  0.000000  0.000000  0.000000  -23.824293027471526  2.6785203464970797  1.5223952647243049  54.172984074118126  6.657678967240966  4.926949039553092  58.898466026159646  -3.99342414569528  -6.384138938061368  21.948363683620745  120.000000
0.02849999999999998  0.000000  0.000000  0.000000  -23.54502392341001  2.729777478627294  1.15007117714765  54.00029720367156  7.13392862183722  4.98002606380653  59.315676770432226  -3.0931412070860977  -7.347162336898542  21.318247598551416  120.000000
0.05699999999999996  0.000000  0.000000  0.000000  -23.32128608315836  2.7458345077822446  0.7743090809330883  53.82766283153529  7.592936282717278  5.087834667114672  59.73029044464038  -2.102473707293774  -8.298766864507138  20.69035715248194  120.000000
0.08549999999999994  0.000000  0.000000  0.000000  -23.173360900713348  2.753071283318541  0.40006999934895976  53.659693125563976  8.067281451578854  5.235645510504571  60.128129721861676  -0.9670598400274986  -9.241918955082276  20.075656331331817  120.000000
0.11399999999999992  0.000000  0.000000  0.000000  -23.10325833161939  2.786100364098628  0.036864363767155975  53.504657174873586  8.579475961297256  5.400977619075537  60.48722649399216  0.34968734280116637  -10.186425619251501  19.506662864011354  120.000000
0.1424999999999999  0.000000  0.000000  0.000000  -23.099775093871816  2.857609454855733  -0.29283883707733455  53.361494089297295  9.135543377748608  5.560011942102703  60.78057591374875  1.8624872933666876  -11.14592522065405  18.998169647856166  120.000000
0.17099999999999987  0.000000  0.000000  0.000000  -23.15401456971252  2.958399823977303  -0.5699886489457461  53.22450604832162  9.729431130999497  5.706214922397057  60.97304561508128  3.57282261346156  -12.140565857847752  18.553562468599036  120.000000
0.19949999999999987  0.000000  0.000000  0.000000  -23.252593263018454  3.0699858352289238  -0.7874434857677235  53.10129355855741  10.349356599290536  5.848919787923855  61.035356131048616  5.477335437052962  -13.18425659647185  18.171296985667002  120.000000
0.22799999999999984  0.000000  0.000000  0.000000  -23.37807144206228  3.176062057366708  -0.9426433240359251  53.00805940963691  10.98329636166965  5.996656735496498  60.94927929664249  7.562619651735685  -14.280292993783657  17.85780418879825  120.000000
0.25649999999999984  0.000000  0.000000  0.000000  -23.51582261514101  3.2683593860367757  -1.0364697847524131  52.959556188435926  11.623397103839514  6.151681578173564  60.70430408581287  9.802358300594975  -15.424998996574805  17.62195065835969  120.000000
0.2849999999999998  0.000000  0.000000  0.000000  -23.658140244432214  3.3457018559908382  -1.0711545194990961  52.96429896913338  12.26883715589569  6.310994889411024  60.2986961154184  12.159961089887359  -16.60724571030225  17.471648494498996  120.000000
0.3134999999999998  0.000000  0.000000  0.000000  -23.803059388233887  3.411750686164874  -1.0476582289491012  53.02251798383345  12.924143467491069  6.469969116626293  59.740785029915074  14.593822066922945  -17.809019879896752  17.411304284711164  120.000000
0.34199999999999975  0.000000  0.000000  0.000000  -23.953698498830413  3.471161194134795  -0.9663503676967817  53.129096444576724  13.595487170623649  6.625018637879094  59.04746716010598  17.065423541979577  -19.009881036208053  17.43779101531908  120.000000
0.3704999999999997  0.000000  0.000000  0.000000  -24.11663416749881  3.5265982812200676  -0.8279284600566574  53.27586201474166  14.28620927282952  6.775495461880583  58.24255416161674  19.544261175131492  -20.19142343976557  17.53971822479667  120.000000
0.39899999999999974  0.000000  0.000000  0.000000  -24.29829771904814  3.5785909986017232  -0.6344823002475447  53.45555491235727  14.995677973687075  6.9231063251471605  57.35547664376871  22.009112473372017  -21.339626128825568  17.69910543717817  120.000000
0.4274999999999997  0.000000  0.000000  0.000000  -24.502981563564987  3.6265647476873872  -0.38925200034092805  53.662960856376706  15.720244077794117  7.070930808894865  56.418114077041935  24.444701232894555  -22.446235793261327  17.896405124157404  120.000000
0.4559999999999997  0.000000  0.000000  0.000000  -24.732493029288605  3.669377713097479  -0.0964880073937038  53.894065442759754  16.454240019050197  7.222101104474053  55.4596743813827  26.837974788341057  -23.51028793008873  18.11480548702335  120.000000
0.48449999999999965  0.000000  0.000000  0.000000  -24.986721556364756  3.705894435889934  0.23939642452833776  54.14400722572311  17.191867779904303  7.378376396911826  54.50392852953057  29.174427093402297  -24.535244458767902  18.34375687211396  120.000000
0.5129999999999997  0.000000  0.000000  0.000000  -25.263883045932282  3.736189341255517  0.6145866907122569  54.40558536686981  17.928511913438648  7.539050869657962  53.56785405706544  31.436178429822508  -25.525656061651294  18.58066297785082  120.000000
0.5414999999999996  0.000000  0.000000  0.000000  -25.5610927068789  3.7615500078303916  1.026285564583136  54.668698320177675  18.660343623018093  7.701873378875222  52.66128882065193  33.60222345855083  -26.485157766174353  18.829568191609475  120.000000
0.5699999999999996  0.000000  0.000000  0.000000  -25.874065983926588  3.783585093532423  1.4730418268885301  54.92129209892569  19.38339157956978  7.864642919237477  51.78811711286631  35.650678300033384  -27.415883312931573  19.09791561075724  120.000000
0.5984999999999996  0.000000  0.000000  0.000000  -26.19661364410935  3.8040238047808344  1.9550171695761565  55.150543747045965  20.09299199945801  8.026890481574236  50.94866436096165  37.561086622268334  -28.318034710380545  19.392812353742535  120.000000
0.6269999999999996  0.000000  0.000000  0.000000  -26.52116280633729  3.825985373802195  2.47379839630224  55.34484612057012  20.783619371505058  8.18996816818957  50.14175392938728  39.31670768476118  -29.19065921983777  19.717500001763124  120.000000
0.6554999999999995  0.000000  0.000000  0.000000  -26.839112018650965  3.854218842363949  3.0335131837293496  55.4949998374864  21.448242441451473  8.356430332510467  49.3662104398356  40.905202100681144  -30.031802210040066  20.069375716158333  120.000000
0.6839999999999995  0.000000  0.000000  0.000000  -27.14093613480757  3.893281088923088  3.641648984346487  55.59481569194564  22.0780080307254  8.529570196352376  48.62126295351734  42.318686082751704  -30.83849805597844  20.440524693761894  120.000000
0.7124999999999995  0.000000  0.000000  0.000000  -27.417776576795145  3.9463306877614746  4.308733939819601  55.64199724580411  22.662252381982533  8.712784015793863  47.90579139516964  43.553836364056934  -31.60680249842554  20.820091226134906  120.000000
0.7409999999999994  0.000000  0.000000  0.000000  -27.6636879485643  4.0143095517099985  5.047747122442143  55.63833572443247  23.18841438945833  8.908058557911273  47.217005766336015  44.61173520565459  -32.331420866132575  21.197549081642492  120.000000
0.7694999999999995  0.000000  0.000000  0.000000  -27.877323980574324  4.094801032397183  5.872925990074655  55.59020626230635  23.641900224580638  9.114604974094174  46.549271232938544  45.497630907945  -33.00602700744033  21.56554318547905  120.000000
0.7979999999999995  0.000000  0.000000  0.000000  -28.061547317351444  4.1815934958632  6.7980306712800616  55.50900817263304  24.00645076426997  9.328009423873862  45.89376846976901  46.22118344220132  -33.62406973168203  21.921854682444522  120.000000
0.8264999999999995  0.000000  0.000000  0.000000  -28.222670821179058  4.26590072791857  7.835280681880704  55.41116036769802  24.26537155606573  9.540574445254002  45.23971432560133  46.79664517358729  -34.17946219080629  22.269472882164898  120.000000
0.8549999999999994  0.000000  0.000000  0.000000  -28.370464181648217  4.338765067879327  8.992274427540975  55.31596466956183  24.403861303357388  9.743476915965664  44.576115290142496  47.242949166265426  -34.66725642226222  22.614785482553373  120.000000
0.8834999999999994  0.000000  0.000000  0.000000  -28.516500651356004  4.391796291986448  10.269243056688538  55.24236804116204  24.41122068209568  9.927535427053785  43.89364145081308  47.58219971060893  -35.08419216065669  22.964465909437507  120.000000
0.9119999999999994  0.000000  0.000000  0.000000  -28.67133940654358  4.4189684098946245  11.659143444129112  55.20672525960569  24.28030758965108  10.083044885614685  43.1873239768045  47.837903289411855  -35.42856722598675  23.321978018146073  120.000000
0.9404999999999993  0.000000  0.000000  0.000000  -28.84286824831092  4.418684987832852  13.14812089564462  55.221174036565415  24.008289771962495  10.201147672640154  42.45923811006291  48.03316177140062  -35.699694088552825  23.68581145044939  120.000000
0.9689999999999993  0.000000  0.000000  0.000000  -29.035343807393488  4.39304047251966  14.71529481642196  55.29235364521364  23.599377995682794  10.274857318969403  41.718819017995415  48.18948030449326  -35.89787246486813  24.04907071391716  120.000000
0.9974999999999993  0.000000  0.000000  0.000000  -29.249188532284002  4.347304609048632  16.33434400444174  55.42052108545533  23.064548547577743  10.29948907893628  40.98145124069253  48.3248392141304  -36.02507260523071  24.40036233321948  120.000000
1.0259999999999994  0.000000  0.000000  0.000000  -29.481226017452993  4.288113747786012  17.976080138600615  55.6006688549831  22.420122663859818  10.271075159320404  40.26685796951935  48.45180960762006  -36.08525483820901  24.72651043024713  120.000000
1.0544999999999993  0.000000  0.000000  0.000000  -29.72450224850085  4.222278395725314  19.609467719346323  55.823974337946034  21.687317895206363  10.186687871760538  39.59661847118443  48.57703629390819  -36.08525069069057  25.01541541091017  120.000000
1.0829999999999993  0.000000  0.000000  0.000000  -29.96894510621746  4.1561521642627985  21.203433884824054  56.078809773575664  20.891273409732857  10.046206248507858  38.990950533268965  48.70205960107217  -36.035254821301436  25.257745215831317  120.000000
1.1114999999999993  0.000000  0.000000  0.000000  -30.20297057944793  4.093501521870257  22.72954966022232  56.35200282667162  20.05906268392838  9.85171734274564  38.466464025425324  48.824996385282184  -35.94844046391705  25.448179600827388  120.000000
1.1399999999999992  0.000000  0.000000  0.000000  -30.41459354472561  4.035342869561929  24.16349747950513  56.629938658355265  19.216677970245126  9.606294765249094  38.03544756690993  48.941700750334114  -35.84009455174695  25.58536124069455  120.000000
1.1684999999999992  0.000000  0.000000  0.000000  -30.592098091687458  3.980960169255265  25.484907763519505  56.899905519167326  18.38697498181487  9.312545202270133  37.70692075511714  49.046312925798745  -35.72634504906334  25.67081453429152  120.000000
